<svg xmlns="http://www.w3.org/2000/svg" xmlns:xlink="http://www.w3.org/1999/xlink" viewBox="0 0 269.51 281.97"><defs><style>.cls-1,.cls-2{fill-rule:evenodd;}.cls-1{fill:url(#linear-gradient);}.cls-2{fill:url(#linear-gradient-2);}</style><linearGradient id="linear-gradient" x1="372.9" y1="235.09" x2="535.75" y2="235.09" gradientUnits="userSpaceOnUse"><stop offset="0" stop-color="#966c38"/><stop offset="0.32" stop-color="#f5d462"/><stop offset="0.6" stop-color="#b1772e"/><stop offset="0.82" stop-color="#fbc211"/><stop offset="1" stop-color="#cb983d"/></linearGradient><linearGradient id="linear-gradient-2" x1="266.25" y1="293.25" x2="530.46" y2="293.25" xlink:href="#linear-gradient"/></defs><g id="Layer_1" data-name="Layer 1"><path class="cls-1" d="M379.08,247.48H383l6.17-25.14h-3.77l-3.05,13.86c-.47,2.23-.9,4.67-1.26,6.68H381c-.36-2-.75-4.45-1.26-6.68l-3-13.86H372.9l6.18,25.14Zm147.62-3.41v-7.69h8V233h-8v-7.28h8.69v-3.42H523.08v25.14h12.67v-3.41Zm-34.54,3.77c4.49,0,7.39-2.91,7.39-8.12V222.34h-3.73v17.38c0,3.12-1.4,4.6-3.66,4.6s-3.7-1.48-3.7-4.6V222.34h-3.73v17.38c0,5.21,2.9,8.12,7.43,8.12Zm-34.51-25.5v9.81c0,2.22.21,6,.5,8.47l-.11.07c-.61-1.51-1.54-3.84-2.29-5.53L450,222.34h-3.63v25.14h3.59v-9.7c0-2.37-.18-6.14-.43-8.65l.11-.07c.61,1.61,1.65,4.23,2.4,6.1l5.6,12.32h3.63V222.34Zm-43.13,21.73v-7.69h8V233h-8v-7.28h8.69v-3.42H410.9v25.14h12.67v-3.41Z" transform="translate(-266.25 -152.26)"/></g><g id="Graphic_element" data-name="Graphic element"><path class="cls-2" d="M319.88,406.82q-30-27.4-30-77.1V164.09l-23.66-5.91v-5.92H378.64v5.92L355,164.09V329.72q0,50.88,15.77,72.76t45.35,21.89q18.13,0,34.51-11.63T477,379.61q10.05-21.48,10.06-49.89V271.85h11.83v57.87q0,31.95-11.83,55.61t-32.34,36.28q-20.5,12.61-46.54,12.62-58.36,0-88.33-27.41ZM487.09,201.28h11.83V170l31.54-11.83v-5.92H455.54v5.92L487.09,170Z" transform="translate(-266.25 -152.26)"/></g></svg>